<?xml version="1.0" encoding="UTF-8" standalone="no"?>
<!-- Created with Inkscape (http://www.inkscape.org/) -->

<svg
   xmlns:svg="http://www.w3.org/2000/svg"
   xmlns="http://www.w3.org/2000/svg"
   version="1.1"
   width="500"
   height="120"
   id="Logo"
   xml:space="preserve"><defs
     id="defs" /><g
     transform="matrix(1.25,0,0,-1.25,-22.5,130.9449)"
     id="Eyrolles"><path
       d="m 79.945102,97.301562 24.780618,0 0,-6.613299 -16.36118,0 0,-10.345409 14.97784,0 0,-6.618276 -14.97784,0 0,-11.788492 16.4806,0 0,-6.613299 -24.900038,0 0,41.978775"
       id="E"
       style="fill:#19171c;fill-opacity:1;fill-rule:nonzero;stroke:none" /><path
       d="m 124.51538,71.923213 -15.3411,25.378349 9.86747,0 9.92219,-17.620536 10.10631,17.620536 8.90212,0 -15.03756,-25.378349 0,-16.600426 -8.41943,0 0,16.600426"
       id="Y"
       style="fill:#19171c;fill-opacity:1;fill-rule:nonzero;stroke:none" /><path
       d="m 161.2086,79.377481 2.76667,0 c 4.15001,0 8.89714,0.60709 8.89714,5.83702 0,5.055766 -4.68742,5.473762 -8.89714,5.473762 l -2.76667,0 0,-11.310782 z m -8.42441,17.924081 9.08622,0 c 9.02154,0 19.78966,0.308521 19.78966,-11.365519 0,-4.936338 -3.30906,-9.026731 -8.66326,-9.748272 l 0,-0.119428 c 2.28399,-0.174165 3.60762,-2.463192 4.44857,-4.324271 l 6.73754,-16.421285 -9.37982,0 -5.05564,13.112147 c -1.2042,3.129996 -2.284,4.329248 -5.83688,4.329248 l -2.70198,0 0,-17.441395 -8.42441,0 0,41.978775"
       id="R"
       style="fill:#19171c;fill-opacity:1;fill-rule:nonzero;stroke:none" /><path
       d="m 208.78439,61.214545 c 8.60355,0 11.78821,7.643361 11.78821,15.217057 0,7.399531 -3.42351,14.978202 -11.78821,14.978202 -8.35972,0 -11.7882,-7.578671 -11.7882,-14.978202 0,-7.573696 3.18963,-15.217057 11.7882,-15.217057 z m 0,36.808558 c 13.17155,0 20.57587,-8.89735 20.57587,-21.591501 0,-12.689175 -7.27992,-21.835333 -20.57587,-21.835333 -13.46513,0 -20.56592,8.967017 -20.56592,21.835333 0,12.873292 7.21524,21.591501 20.56592,21.591501"
       id="O"
       style="fill:#19171c;fill-opacity:1;fill-rule:nonzero;stroke:none" /><path
       d="m 237.05818,97.301562 8.41446,0 0,-35.365476 16.31142,0 0,-6.613299 -24.72588,0 0,41.978775"
       id="L"
       style="fill:#19171c;fill-opacity:1;fill-rule:nonzero;stroke:none" /><path
       d="m 267.13329,97.301562 8.41943,0 0,-35.365476 16.30644,0 0,-6.613299 -24.72587,0 0,41.978775"
       id="L2"
       style="fill:#19171c;fill-opacity:1;fill-rule:nonzero;stroke:none" /><path
       d="m 297.21337,97.301562 24.78061,0 0,-6.613299 -16.36117,0 0,-10.345409 14.97784,0 0,-6.618276 -14.97784,0 0,-11.788492 16.47562,0 0,-6.613299 -24.89506,0 0,41.978775"
       id="E2"
       style="fill:#19171c;fill-opacity:1;fill-rule:nonzero;stroke:none" /><path
       d="m 353.2086,89.608439 c -2.64227,1.144514 -5.59803,1.801365 -8.54384,1.801365 -2.87614,0 -6.61314,-1.258965 -6.61314,-5.83702 0,-7.280103 18.4113,-4.204844 18.4113,-18.282364 0,-9.200895 -7.28988,-12.694151 -15.76405,-12.694151 -4.56799,0 -6.62309,0.602114 -10.75817,1.622224 l 0.77626,7.583648 c 2.88609,-1.56251 6.19018,-2.587596 9.49923,-2.587596 3.18964,0 7.45907,1.622224 7.45907,5.414048 0,7.996668 -18.40633,4.692506 -18.40633,18.585908 0,9.380037 7.27993,12.808602 14.67928,12.808602 3.6126,0 6.97639,-0.47771 10.04163,-1.502796 l -0.78124,-6.911868"
       id="S"
       style="fill:#19171c;fill-opacity:1;fill-rule:nonzero;stroke:none" /><path
       d="m 410,24.689627 c -62.90694,5.16524 -135.1688,7.882216 -200.20547,7.882216 -65.0118,0 -120.892579,-2.716976 -183.794537,-7.882216 l 384.000007,0"
       id="Ligne"
       style="fill:#19171c;fill-opacity:1;fill-rule:nonzero;stroke:none" /><path
       d="m 222.25947,28.949208 c 0,-7.439339 -6.02099,-13.460477 -13.45517,-13.460477 -7.43419,0 -13.46016,6.021138 -13.46016,13.460477 0,7.429388 6.02597,13.445549 13.46016,13.445549 7.43418,0 13.45517,-6.016161 13.45517,-13.445549"
       id="Rond"
       style="fill:#e0001a;fill-opacity:1;fill-rule:nonzero;stroke:none" /></g></svg>